
<svg xmlns="http://www.w3.org/2000/svg" width="230.3336" height="53.270828" viewBox="0 0 60.942431 14.094574" version="1.1" id="svg16">
  <defs id="defs10"></defs>
  
  
  <g id="layer1" transform="translate(0.98907367,-119.95271)">
    <g id="g1385" transform="translate(-75.332662,16.630955)">
      <path style="fill:#28abe1;fill-opacity:1;fill-rule:evenodd;stroke:none;stroke-width:0.352778" d="m 130.39942,116.43655 h -0.8654 c -0.20119,0 -0.30593,0.14882 -0.30593,0.43132 0,0.26734 0.10474,0.41617 0.30593,0.41617 h 3.32658 c 0.21222,0 0.31833,-0.14883 0.31833,-0.41617 0,-0.2825 -0.10611,-0.43132 -0.31833,-0.43132 z m 0,0" id="path704"></path>
      <path style="fill:#3db3e3;fill-opacity:1;fill-rule:evenodd;stroke:none;stroke-width:0.352778" d="m 125.32549,116.43655 h -0.86403 c -0.19706,0 -0.31419,0.14882 -0.31419,0.43132 0,0.26734 0.11713,0.41617 0.31419,0.41617 h 3.32383 c 0.20808,0 0.31281,-0.14883 0.31281,-0.41617 0,-0.2825 -0.10473,-0.43132 -0.31281,-0.43132 z m 0,0" id="path706"></path>
      <path style="fill:#4ab8e6;fill-opacity:1;fill-rule:evenodd;stroke:none;stroke-width:0.352778" d="m 120.52165,116.43655 h -0.86541 c -0.21084,0 -0.30592,0.14882 -0.30592,0.43132 0,0.26734 0.0951,0.41617 0.30592,0.41617 h 3.32659 c 0.21221,0 0.31832,-0.14883 0.31832,-0.41617 0,-0.2825 -0.10611,-0.43132 -0.31832,-0.43132 z m 0,0" id="path708"></path>
      <path style="fill:#57bde8;fill-opacity:1;fill-rule:evenodd;stroke:none;stroke-width:0.352778" d="m 115.44771,116.43655 h -0.85989 c -0.21222,0 -0.31833,0.14882 -0.31833,0.43132 0,0.26734 0.10611,0.41617 0.31833,0.41617 h 3.31556 c 0.21221,0 0.31695,-0.14883 0.31695,-0.41617 0,-0.2825 -0.10474,-0.43132 -0.31695,-0.43132 z m 0,0" id="path710"></path>
      <path style="fill:#63c2eb;fill-opacity:1;fill-rule:evenodd;stroke:none;stroke-width:0.352778" d="m 110.36826,116.43655 h -0.86127 c -0.21084,0 -0.31695,0.14882 -0.31695,0.43132 0,0.26734 0.10611,0.41617 0.31695,0.41617 h 3.31694 c 0.21084,0 0.31695,-0.14883 0.31695,-0.41617 0,-0.2825 -0.10611,-0.43132 -0.31695,-0.43132 z m 0,0" id="path712"></path>
      <path style="fill:#70c7eb;fill-opacity:1;fill-rule:evenodd;stroke:none;stroke-width:0.352778" d="m 105.56993,116.43655 h -0.85989 c -0.21222,0 -0.31833,0.14882 -0.31833,0.43132 0,0.26734 0.10611,0.41617 0.31833,0.41617 h 3.31556 c 0.21221,0 0.31695,-0.14883 0.31695,-0.41617 0,-0.2825 -0.10474,-0.43132 -0.31695,-0.43132 z m 0,0" id="path714"></path>
      <path style="fill:#7dccee;fill-opacity:1;fill-rule:evenodd;stroke:none;stroke-width:0.352778" d="m 100.49049,116.43655 h -0.861278 c -0.210842,0 -0.31695,0.14882 -0.31695,0.43132 0,0.26734 0.106108,0.41617 0.31695,0.41617 h 3.316938 c 0.22186,0 0.31695,-0.14883 0.31695,-0.41617 0,-0.2825 -0.0951,-0.43132 -0.31695,-0.43132 z m 0,0" id="path716"></path>
      <path style="fill:#8ad1f0;fill-opacity:1;fill-rule:evenodd;stroke:none;stroke-width:0.352778" d="m 95.409658,116.43655 h -0.859896 c -0.212217,0 -0.318326,0.14882 -0.318326,0.43132 0,0.26734 0.106109,0.41617 0.318326,0.41617 h 3.326585 c 0.201193,0 0.307301,-0.14883 0.307301,-0.41617 0,-0.2825 -0.106108,-0.43132 -0.307301,-0.43132 z m 0,0" id="path718"></path>
      <path style="fill:#97d7f0;fill-opacity:1;fill-rule:evenodd;stroke:none;stroke-width:0.352778" d="m 90.614085,116.43655 h -0.86403 c -0.21084,0 -0.31557,0.14882 -0.31557,0.43132 0,0.26734 0.10473,0.41617 0.31557,0.41617 h 3.318315 c 0.210842,0 0.31695,-0.14883 0.31695,-0.41617 0,-0.2825 -0.106108,-0.43132 -0.31695,-0.43132 z m 0,0" id="path720"></path>
      <path style="fill:#a3dcf3;fill-opacity:1;fill-rule:evenodd;stroke:none;stroke-width:0.352778" d="m 85.52499,116.43655 h -0.854383 c -0.21084,0 -0.316949,0.14882 -0.316949,0.43132 0,0.26734 0.106109,0.41617 0.316949,0.41617 h 3.318316 c 0.210839,0 0.316948,-0.14883 0.316948,-0.41617 0,-0.2825 -0.106109,-0.43132 -0.316948,-0.43132 z m 0,0" id="path722"></path>
      <path style="fill:#b0e1f5;fill-opacity:1;fill-rule:evenodd;stroke:none;stroke-width:0.352778" d="M 80.451054,116.43655 H 79.58978 c -0.21084,0 -0.315571,0.14882 -0.315571,0.43132 0,0.26734 0.104731,0.41617 0.315571,0.41617 h 3.319694 c 0.21084,0 0.315571,-0.14883 0.315571,-0.41617 0,-0.2825 -0.104731,-0.43132 -0.315571,-0.43132 z m 0,0" id="path724"></path>
      <path style="fill:#bde6f5;fill-opacity:1;fill-rule:evenodd;stroke:none;stroke-width:0.352778" d="m 75.647212,116.43655 h -0.86403 c -0.210839,0 -0.307302,0.14882 -0.307302,0.43132 0,0.26734 0.09646,0.41617 0.307302,0.41617 h 3.327963 c 0.210839,0 0.316948,-0.14883 0.316948,-0.41617 0,-0.2825 -0.106109,-0.43132 -0.316948,-0.43132 z m 0,0" id="path726"></path>
      <path style="fill:#e11735;fill-opacity:1;fill-rule:evenodd;stroke:none;stroke-width:0.352778" d="m 74.47588,106.17843 h 0.903993 v 1.24161 c 0.310059,-0.46302 0.629764,-0.79099 0.959115,-1.00183 0.451996,-0.27836 0.931553,-0.42306 1.430403,-0.42306 0.337619,0 0.658702,0.0662 0.968761,0.20119 0.300412,0.13643 0.55535,0.31695 0.742763,0.54984 0.188791,0.22186 0.358289,0.54708 0.498849,0.96325 0.300413,-0.5581 0.677995,-0.98392 1.118968,-1.28158 0.451996,-0.288 0.931553,-0.4327 1.449696,-0.4327 0.489203,0 0.912261,0.12265 1.278819,0.37345 0.366558,0.2508 0.63941,0.59944 0.828201,1.05144 0.179145,0.44373 0.263205,1.11759 0.263205,2.00367 v 3.90812 h -0.912261 v -3.90812 c 0,-0.76205 -0.0565,-1.29122 -0.159852,-1.58061 -0.112999,-0.28939 -0.292145,-0.51814 -0.55535,-0.69177 -0.253559,-0.17639 -0.564995,-0.26046 -0.921907,-0.26046 -0.432704,0 -0.828201,0.13368 -1.194759,0.3955 -0.35829,0.25632 -0.620118,0.61323 -0.789616,1.04731 -0.161231,0.44373 -0.245291,1.17409 -0.245291,2.19797 v 2.80018 h -0.902615 v -3.65732 c 0,-0.86816 -0.04685,-1.45383 -0.150206,-1.76389 -0.112999,-0.3073 -0.292144,-0.5581 -0.55535,-0.74138 -0.263205,-0.18328 -0.574642,-0.27837 -0.931554,-0.27837 -0.414789,0 -0.799262,0.12265 -1.167198,0.38448 -0.356912,0.2508 -0.620117,0.59669 -0.799262,1.02939 -0.169499,0.43409 -0.253559,1.0983 -0.253559,1.99402 v 3.03307 H 74.47588 Z m 0,0" id="path728"></path>
      <path style="fill:#e11735;fill-opacity:1;fill-rule:evenodd;stroke:none;stroke-width:0.352778" d="m 90.286112,106.91155 c -0.757921,0 -1.401464,0.28249 -1.941655,0.85714 -0.538813,0.56775 -0.814421,1.25952 -0.814421,2.07808 0,0.51814 0.124023,1.00596 0.369314,1.46485 0.246669,0.45062 0.577398,0.80064 1.00459,1.04318 0.416167,0.24391 0.87092,0.37069 1.382172,0.37069 0.49196,0 0.956359,-0.12678 1.372526,-0.37069 0.424435,-0.24254 0.756543,-0.59256 1.003213,-1.04318 0.246669,-0.45889 0.370691,-0.94671 0.370691,-1.46485 0,-0.81856 -0.275607,-1.51033 -0.814419,-2.07808 -0.540192,-0.57465 -1.183736,-0.85714 -1.932011,-0.85714 z m 0,-0.9164 c 1.079004,0 1.977484,0.40928 2.689929,1.20992 0.653193,0.74001 0.974274,1.60817 0.974274,2.62378 0,1.00597 -0.343129,1.89067 -1.033526,2.64308 -0.682131,0.76205 -1.561319,1.1424 -2.630677,1.1424 -1.080382,0 -1.960948,-0.38035 -2.641699,-1.1424 -0.691775,-0.75241 -1.032151,-1.63711 -1.032151,-2.64308 0,-1.00459 0.322461,-1.87275 0.974273,-2.61414 0.711068,-0.81028 1.610927,-1.21956 2.699577,-1.21956 z m 0,0" id="path730"></path>
      <path style="fill:#e11735;fill-opacity:1;fill-rule:evenodd;stroke:none;stroke-width:0.352778" d="m 99.082131,106.92946 c -0.514008,0 -0.977029,0.12678 -1.402842,0.37758 -0.431327,0.26045 -0.762057,0.61047 -1.016995,1.07625 -0.246669,0.45889 -0.380337,0.9412 -0.380337,1.44556 0,0.51539 0.133668,1.00184 0.380337,1.45797 0.254938,0.46577 0.596692,0.82544 1.023885,1.08589 0.436837,0.2508 0.891589,0.38861 1.386303,0.38861 0.493339,0 0.970138,-0.13781 1.413868,-0.38861 0.43822,-0.25356 0.77997,-0.60358 1.02664,-1.03766 0.23702,-0.43684 0.35002,-0.93018 0.35002,-1.47726 0,-0.83233 -0.26458,-1.531 -0.80891,-2.08497 -0.52916,-0.56086 -1.194757,-0.84336 -1.971969,-0.84336 z m 3.615969,-3.47541 v 9.977 h -0.89159 v -1.24162 c -0.38172,0.47267 -0.80891,0.82131 -1.27331,1.06523 -0.47266,0.23288 -0.994938,0.35967 -1.555802,0.35967 -0.994942,0 -1.852083,-0.3707 -2.55488,-1.11484 -0.701424,-0.73725 -1.061092,-1.62884 -1.061092,-2.6982 0,-1.03077 0.359668,-1.92236 1.072116,-2.65961 0.712446,-0.73725 1.565452,-1.10519 2.571419,-1.10519 0.578774,0 1.101049,0.12403 1.566829,0.37758 0.47542,0.25081 0.8847,0.63114 1.23472,1.13689 v -4.09691 z m 0,0" id="path732"></path>
      <path style="fill:#e11735;fill-opacity:1;fill-rule:evenodd;stroke:none;stroke-width:0.352778" d="m 110.7238,109.0668 c -0.12265,-0.49747 -0.30593,-0.8847 -0.53606,-1.18787 -0.22875,-0.29352 -0.53606,-0.53606 -0.93155,-0.71245 -0.38034,-0.18741 -0.78273,-0.27561 -1.20579,-0.27561 -0.69866,0 -1.29122,0.226 -1.79972,0.68351 -0.36242,0.33211 -0.64216,0.82958 -0.83233,1.49242 z m 0,1.9513 0.76619,0.4203 c -0.24667,0.49748 -0.54709,0.90675 -0.87092,1.21957 -0.33624,0.31143 -0.7097,0.54708 -1.12173,0.71382 -0.40927,0.15434 -0.88194,0.24254 -1.40835,0.24254 -1.15755,0 -2.06706,-0.39137 -2.72025,-1.16031 -0.65181,-0.77997 -0.97703,-1.65089 -0.97703,-2.62517 0,-0.92742 0.26872,-1.74597 0.82545,-2.45842 0.70555,-0.91777 1.64813,-1.37528 2.82635,-1.37528 1.20579,0 2.17317,0.46854 2.89939,1.40284 0.51815,0.66422 0.77584,1.48553 0.78686,2.48047 h -6.39961 c 0.022,0.83923 0.27837,1.531 0.79375,2.06706 0.5085,0.53606 1.14378,0.81166 1.88792,0.81166 0.36656,0 0.70831,-0.0703 1.0542,-0.19705 0.34589,-0.12679 0.63114,-0.30042 0.87229,-0.5085 0.24943,-0.21084 0.50712,-0.55397 0.78549,-1.03353 z m 0,0" id="path734"></path>
      <path style="fill:#e11735;fill-opacity:1;fill-rule:evenodd;stroke:none;stroke-width:0.352778" d="m 113.14088,106.17843 h 0.94947 v 1.04731 c 0.28111,-0.41204 0.58566,-0.71934 0.89847,-0.92466 0.32522,-0.2012 0.6463,-0.30593 0.98806,-0.30593 0.26458,0 0.54019,0.0882 0.83233,0.23978 l -0.4892,0.77859 c -0.1943,-0.0841 -0.36105,-0.12265 -0.48782,-0.12265 -0.3142,0 -0.61737,0.12265 -0.89987,0.37345 -0.29627,0.25081 -0.51125,0.6463 -0.66559,1.17547 -0.11713,0.40515 -0.17638,1.23472 -0.17638,2.47634 v 2.4157 h -0.94947 z m 0,0" id="path736"></path>
      <path style="fill:#e11735;fill-opacity:1;fill-rule:evenodd;stroke:none;stroke-width:0.352778" d="m 117.9392,106.17843 h 0.87092 v 1.2802 c 0.34589,-0.49059 0.74139,-0.85714 1.16031,-1.09692 0.42306,-0.24391 0.88884,-0.36656 1.38631,-0.36656 0.51125,0 0.96049,0.13367 1.35461,0.40514 0.39136,0.27837 0.68764,0.64492 0.8723,1.09692 0.19017,0.46302 0.28112,1.17547 0.28112,2.15525 v 3.67937 h -0.87092 v -3.40789 c 0,-0.8282 -0.0358,-1.37942 -0.0992,-1.65778 -0.10198,-0.47267 -0.29214,-0.8282 -0.58567,-1.06798 -0.28525,-0.23014 -0.6587,-0.35691 -1.12861,-0.35691 -0.52228,0 -0.9977,0.18328 -1.418,0.54983 -0.42306,0.37483 -0.69867,0.82958 -0.82544,1.36564 -0.0813,0.35691 -0.12679,1.01286 -0.12679,1.94717 v 2.62792 h -0.87092 z m 0,0" id="path738"></path>
      <path style="fill:#e11735;fill-opacity:1;fill-rule:evenodd;stroke:none;stroke-width:0.352778" d="m 129.28046,106.89087 c -0.50436,0 -0.97014,0.12679 -1.40422,0.38034 -0.42995,0.26459 -0.76206,0.61737 -1.01562,1.08314 -0.24666,0.45889 -0.38171,0.94947 -0.38171,1.45383 0,0.51815 0.13505,1.00597 0.38171,1.46348 0.25356,0.46991 0.59531,0.82958 1.02251,1.09416 0.43821,0.25356 0.89297,0.39136 1.3863,0.39136 0.49472,0 0.97014,-0.1378 1.41525,-0.39136 0.43684,-0.25356 0.77997,-0.60358 1.02664,-1.04455 0.23564,-0.43684 0.34864,-0.93431 0.34864,-1.48139 0,-0.83923 -0.26458,-1.54203 -0.79651,-2.09875 -0.54019,-0.565 -1.20715,-0.85026 -1.98299,-0.85026 z m 3.61597,-0.70968 v 7.2471 h -0.89297 v -1.24988 c -0.38034,0.47956 -0.80753,0.83233 -1.27331,1.07625 -0.47266,0.23288 -0.99494,0.35967 -1.5558,0.35967 -0.99494,0 -1.85208,-0.3707 -2.5535,-1.12173 -0.7028,-0.74001 -1.06247,-1.63987 -1.06247,-2.71336 0,-1.03352 0.35967,-1.93201 1.07211,-2.67339 0.71383,-0.74138 1.56683,-1.1107 2.5728,-1.1107 0.57877,0 1.09967,0.12678 1.56545,0.38034 0.4768,0.25356 0.88608,0.63528 1.23472,1.13964 v -1.33394 z m 0,0" id="path740"></path>
      <path style="fill:#e11735;fill-opacity:1;fill-rule:evenodd;stroke:none;stroke-width:0.352778" d="m 134.44121,106.80268 h 0.113 c 0.0606,0 0.0992,0 0.11713,-0.022 0.0276,-0.0165 0.0386,-0.0386 0.0386,-0.0661 0,-0.0179 -0.011,-0.0386 -0.0179,-0.0496 -0.011,-0.0179 -0.0207,-0.0275 -0.0386,-0.0386 -0.0207,0 -0.0606,-0.007 -0.1061,-0.007 h -0.10611 z m -0.0978,0.34865 v -0.61323 h 0.20395 c 0.0772,0 0.12402,0 0.16261,0.011 0.0275,0.0207 0.0592,0.0386 0.0772,0.0703 0.022,0.0276 0.0289,0.0565 0.0289,0.0841 0,0.0496 -0.0179,0.0882 -0.0469,0.11714 -0.0386,0.0317 -0.0772,0.0482 -0.13643,0.0592 0.0317,0.011 0.0386,0.0221 0.0593,0.0289 0.0179,0.0317 0.0455,0.0703 0.0841,0.12678 l 0.0786,0.11575 h -0.12402 l -0.0496,-0.0951 c -0.0482,-0.0772 -0.0772,-0.12678 -0.10473,-0.14745 -0.022,-0.007 -0.0496,-0.0179 -0.0785,-0.0179 h -0.0565 v 0.26045 z m 0.24254,-0.79651 c -0.0772,0 -0.15434,0.0207 -0.23289,0.0661 -0.0772,0.04 -0.13367,0.0992 -0.17226,0.17639 -0.0496,0.0785 -0.0675,0.15572 -0.0675,0.24392 0,0.0772 0.0179,0.15572 0.0675,0.23289 0.0386,0.0772 0.0951,0.1378 0.17226,0.17639 0.0786,0.0496 0.15572,0.0675 0.23289,0.0675 0.0854,0 0.1626,-0.0179 0.23977,-0.0675 0.0786,-0.0386 0.13505,-0.0992 0.17364,-0.17639 0.0386,-0.0772 0.0661,-0.15572 0.0661,-0.23289 0,-0.0882 -0.0275,-0.16537 -0.0661,-0.24392 -0.0386,-0.0772 -0.10611,-0.13642 -0.17364,-0.17639 -0.0772,-0.0455 -0.15434,-0.0661 -0.23977,-0.0661 z m 0,-0.0786 c 0.0951,0 0.19016,0.0221 0.27836,0.0606 0.0965,0.0455 0.16261,0.12403 0.21222,0.21222 0.0606,0.0882 0.0772,0.18604 0.0772,0.29215 0,0.0992 -0.0165,0.1943 -0.0661,0.28249 -0.0606,0.0882 -0.12678,0.16537 -0.21222,0.21498 -0.0992,0.0455 -0.18328,0.0675 -0.28938,0.0675 -0.0978,0 -0.19431,-0.0221 -0.2825,-0.0675 -0.0841,-0.0496 -0.15159,-0.12678 -0.21084,-0.21498 -0.0496,-0.0882 -0.0675,-0.18327 -0.0675,-0.28249 0,-0.10611 0.0179,-0.20395 0.0675,-0.29215 0.0592,-0.0882 0.12678,-0.16674 0.21084,-0.21222 0.0992,-0.0386 0.1943,-0.0606 0.2825,-0.0606 z m 0,0" id="path742"></path>
    </g>
  </g>
</svg>
